<svg width="65" height="13" xmlns="http://www.w3.org/2000/svg">
 <g>
  <title>Layer 1</title>
  <g id="svg_43">
   <path stroke="null" id="svg_21" d="m30.61392,7.66223l0,0c0,-2.46511 1.98455,-4.46348 4.43261,-4.46348l0,0c1.1756,0 2.30306,0.47026 3.13433,1.30732c0.83128,0.83707 1.29828,1.97237 1.29828,3.15616l0,0c0,2.46511 -1.98455,4.46348 -4.43261,4.46348l0,0c-2.44806,0 -4.43261,-1.99837 -4.43261,-4.46348zm2.21631,0l0,0c0,1.23256 0.99228,2.23174 2.21631,2.23174c1.22403,0 2.21631,-0.99919 2.21631,-2.23174c0,-1.23256 -0.99227,-2.23174 -2.21631,-2.23174l0,0c-1.22403,0 -2.21631,0.99919 -2.21631,2.23174z" stroke-width="0" fill="#000000"/>
   <path stroke="null" stroke-width="0" id="svg_19" d="m13.86333,7.63673l0,0c0,-2.49921 1.99074,-4.52523 4.44645,-4.52523l0,0c1.17927,0 2.31024,0.47676 3.14412,1.32541c0.83387,0.84864 1.30234,1.99965 1.30234,3.19982l0,0c0,2.49921 -1.99074,4.52523 -4.44645,4.52523l0,0c-2.45571,0 -4.44645,-2.02601 -4.44645,-4.52523zm2.22323,0l0,0c0,1.24961 0.99537,2.26261 2.22323,2.26261c1.22785,0 2.22323,-1.01301 2.22323,-2.26261c0,-1.24961 -0.99537,-2.26261 -2.22323,-2.26261l0,0c-1.22785,0 -2.22323,1.01301 -2.22323,2.26261z" fill="#ef1313"/>
   <g stroke="null" id="svg_26">
    <path stroke="null" id="svg_23" d="m41.22104,3.70347l5.23878,0l0,0c0.6863,0 1.24265,0.54232 1.24265,1.21131c0,0.66899 -0.55635,1.21131 -1.24265,1.21131l-5.23878,0l0,0c-0.68629,0 -1.24265,-0.54232 -1.24265,-1.21131c0,-0.66899 0.55635,-1.21131 1.24265,-1.21131z" stroke-width="0" fill="#000000"/>
    <path stroke="null" id="svg_25" d="m43.03108,5.06509l1.88596,0l0,0c0.24707,0 0.44735,1.43328 0.44735,3.20133c0,1.76804 -0.20029,3.20133 -0.44735,3.20133l-1.88596,0l0,0c-0.24707,0 -0.44735,-1.43328 -0.44735,-3.20133c0,-1.76804 0.20029,-3.20133 0.44735,-3.20133z" stroke-width="0" fill="#000000"/>
   </g>
   <g id="svg_30">
    <path stroke="null" id="svg_27" d="m49.01074,3.91819l1.95516,0l0,0c0.25613,0 0.46377,1.73195 0.46377,3.86842c0,2.13647 -0.20763,3.86842 -0.46377,3.86842l-1.95516,0l0,0c-0.25613,0 -0.46377,-1.73195 -0.46377,-3.86842c0,-2.13647 0.20763,-3.86842 0.46377,-3.86842z" stroke-width="0" fill="#000000"/>
    <path stroke="null" id="svg_28" d="m53.66194,4.04396l1.95516,0l0,0c0.25613,0 0.46377,1.68763 0.46377,3.76942c0,2.08179 -0.20764,3.76942 -0.46377,3.76942l-1.95516,0l0,0c-0.25613,0 -0.46377,-1.68763 -0.46377,-3.76942c0,-2.0818 0.20764,-3.76942 0.46377,-3.76942z" stroke-width="0" fill="#000000"/>
    <path transform="rotate(-60 52.5147 7.84967)" stroke="null" id="svg_29" d="m49.63039,6.7841l5.76861,0l0,0c0.7557,0 1.36832,0.47707 1.36832,1.06557c0,0.5885 -0.61262,1.06557 -1.36832,1.06557l-5.76861,0l0,0c-0.7557,0 -1.36832,-0.47707 -1.36832,-1.06557c0,-0.5885 0.61262,-1.06557 1.36832,-1.06557z" stroke-width="0" fill="#000000"/>
   </g>
   <g stroke="null" id="svg_34">
    <path stroke="null" id="svg_31" d="m57.54368,4.24531l1.58386,0l0,0c0.20749,0 0.37569,1.72224 0.37569,3.84672c0,2.12449 -0.1682,3.84672 -0.37569,3.84672l-1.58386,0l0,0c-0.20749,0 -0.37569,-1.72224 -0.37569,-3.84672c0,-2.12449 0.1682,-3.84672 0.37569,-3.84672z" stroke-width="0" fill="#000000"/>
    <path stroke="null" id="svg_32" d="m62.70907,4.24204l1.58386,0l0,0c0.20749,0 0.37569,1.72224 0.37569,3.84672c0,2.12449 -0.1682,3.84672 -0.37569,3.84672l-1.58386,0l0,0c-0.20749,0 -0.37569,-1.72224 -0.37569,-3.84672c0,-2.12449 0.1682,-3.84672 0.37569,-3.84672z" stroke-width="0" fill="#000000"/>
    <path stroke="null" id="svg_33" d="m58.50629,3.76734l4.87342,0l0,0c0.63843,0 1.15598,0.54965 1.15598,1.22768c0,0.67803 -0.51755,1.22768 -1.15598,1.22768l-4.87342,0l0,0c-0.63843,0 -1.15598,-0.54965 -1.15598,-1.22768c0,-0.67803 0.51755,-1.22768 1.15598,-1.22768z" stroke-width="0" fill="#000000"/>
   </g>
   <g stroke="null" id="svg_38">
    <path stroke="null" id="svg_35" d="m24.18795,4.05119l1.07608,0l0,0c0.14097,0 0.25525,1.64054 0.25525,3.66424c0,2.0237 -0.11428,3.66424 -0.25525,3.66424l-1.07608,0l0,0c-0.14097,0 -0.25525,-1.64054 -0.25525,-3.66424c0,-2.02371 0.11428,-3.66424 0.25525,-3.66424z" stroke-width="0" fill="#000000"/>
    <path stroke="null" id="svg_36" d="m25.1507,3.33227l4.43884,0l0,0c0.5815,0 1.0529,0.43902 1.0529,0.98057c0,0.54155 -0.4714,0.98057 -1.0529,0.98057l-4.43884,0l0,0c-0.5815,0 -1.0529,-0.43902 -1.0529,-0.98057c0,-0.54156 0.4714,-0.98057 1.0529,-0.98057z" stroke-width="0" fill="#000000"/>
   </g>
   <g id="svg_42">
    <path transform="rotate(30 3.78835 6.83272)" id="svg_39" d="m2.81944,1.37818l1.93783,0l0,0c0.25386,0 0.45966,2.44208 0.45966,5.45454c0,3.01246 -0.20579,5.45454 -0.45966,5.45454l-1.93783,0l0,0c-0.25386,0 -0.45966,-2.44208 -0.45966,-5.45454c0,-3.01246 0.20579,-5.45454 0.45966,-5.45454z" stroke-width="0" stroke="null" fill="#000000"/>
    <path transform="rotate(-30 9.17648 6.23921)" stroke="null" id="svg_40" d="m8.11948,0.51695l2.114,0l0,0c0.27694,0 0.50144,2.56195 0.50144,5.72227c0,3.16032 -0.2245,5.72226 -0.50144,5.72226l-2.114,0l0,0c-0.27694,0 -0.50144,-2.56194 -0.50144,-5.72226c0,-3.16032 0.2245,-5.72227 0.50144,-5.72227z" stroke-width="0" fill="#000000"/>
   </g>
  </g>
 </g>

</svg>